<?xml version="1.0" standalone="no"?>
<!DOCTYPE svg PUBLIC "-//W3C//DTD SVG 20010904//EN"
 "http://www.w3.org/TR/2001/REC-SVG-20010904/DTD/svg10.dtd">
<svg version="1.0" xmlns="http://www.w3.org/2000/svg"
 width="512.000000pt" height="512.000000pt" viewBox="0 0 512.000000 512.000000"
 preserveAspectRatio="xMidYMid meet">
<metadata>
Created by potrace 1.11, written by Peter Selinger 2001-2013
</metadata>
<g transform="translate(0.000000,512.000000) scale(0.100000,-0.100000)"
fill="#000000" stroke="none">
<path d="M2120 4625 c-80 -13 -150 -24 -157 -24 -6 -1 -66 -44 -132 -96 -119
-94 -124 -97 -328 -179 -152 -61 -242 -90 -332 -110 -118 -25 -127 -29 -213
-88 -87 -62 -92 -67 -213 -246 -122 -179 -126 -185 -160 -305 -34 -119 -35
-126 -30 -247 3 -69 8 -145 11 -169 l6 -43 27 26 28 26 218 -2 218 -3 41 -122
c23 -67 44 -124 47 -127 3 -3 115 -17 249 -31 135 -15 245 -27 245 -28 1 -1
27 -35 59 -75 57 -72 58 -76 110 -265 47 -171 61 -206 122 -319 l69 -127 153
-118 c139 -108 162 -122 240 -148 48 -15 132 -45 186 -66 l99 -39 62 35 c57
32 63 39 86 96 30 79 91 145 206 228 l89 65 189 283 c161 243 192 283 209 279
12 -3 59 -10 106 -17 80 -11 89 -11 148 11 53 19 73 34 127 95 59 66 69 73
139 95 75 23 75 23 176 6 118 -19 153 -34 196 -83 31 -35 31 -35 62 -19 17 9
47 35 66 59 36 44 36 44 36 143 -1 54 -5 143 -9 197 -9 97 -10 99 -69 192 -34
52 -110 159 -171 238 -161 211 -328 346 -589 476 -73 37 -89 50 -147 124 -36
45 -87 114 -112 153 -47 71 -49 72 -163 128 -72 35 -167 70 -255 95 -137 39
-145 40 -391 50 -138 6 -287 13 -330 16 -55 3 -124 -3 -224 -20z m225 -675
c49 -16 96 -30 104 -30 8 0 35 -19 58 -42 41 -40 43 -45 43 -103 0 -33 -8 -87
-18 -120 -18 -60 -18 -60 -73 -78 -52 -18 -60 -18 -178 -2 -68 10 -152 25
-185 35 -66 19 -156 60 -156 71 0 3 9 18 20 32 11 14 29 46 40 73 33 77 116
182 148 187 68 10 114 5 197 -23z m1099 -92 c89 -23 90 -23 133 -82 43 -58 43
-59 43 -141 0 -45 -3 -103 -6 -129 l-7 -46 -156 0 c-136 0 -164 3 -220 22 -63
23 -65 24 -93 85 -20 46 -28 78 -28 121 l0 58 77 67 c70 62 80 67 122 67 25 0
86 -10 135 -22z"/>
<path d="M1900 1381 c0 -5 7 -14 15 -21 13 -10 15 -50 15 -245 0 -195 -2 -235
-15 -245 -31 -25 -15 -32 66 -28 70 3 83 6 100 27 32 39 43 100 43 241 1 227
-28 280 -155 280 -38 0 -69 -4 -69 -9z m132 -63 c9 -17 13 -75 13 -203 0 -176
-8 -225 -35 -225 -6 0 -10 87 -10 225 0 138 4 225 10 225 5 0 15 -10 22 -22z"/>
<path d="M2247 1369 c-15 -11 -32 -39 -39 -62 -17 -59 -17 -319 1 -380 33
-115 139 -115 172 0 9 31 14 98 14 188 0 158 -14 225 -53 255 -32 26 -63 25
-95 -1z m68 -254 c0 -127 -4 -197 -12 -210 -11 -19 -12 -18 -20 10 -4 17 -8
107 -8 200 0 94 4 183 8 200 8 28 9 29 20 10 8 -13 12 -83 12 -210z"/>
<path d="M2450 1381 c0 -5 7 -14 15 -21 13 -10 15 -50 15 -245 0 -195 -2 -235
-15 -245 -28 -24 -15 -30 64 -30 64 0 83 4 104 20 48 38 62 156 27 224 -18 35
-18 41 -4 68 22 43 28 117 12 163 -18 54 -60 75 -150 75 -38 0 -68 -4 -68 -9z
m140 -60 c16 -30 12 -133 -6 -159 -8 -12 -19 -22 -25 -22 -5 0 -9 44 -9 100 0
81 3 100 15 100 8 0 19 -9 25 -19z m1 -252 c16 -30 8 -167 -11 -179 -25 -16
-30 0 -30 101 0 80 3 99 15 99 8 0 19 -10 26 -21z"/>
<path d="M2720 1381 c0 -5 7 -14 15 -21 13 -10 15 -50 15 -245 0 -195 -2 -235
-15 -245 -28 -24 -15 -30 64 -30 64 0 83 4 104 20 48 38 62 156 27 224 -18 35
-18 41 -4 68 22 43 28 117 12 163 -18 54 -60 75 -150 75 -38 0 -68 -4 -68 -9z
m140 -60 c16 -30 12 -133 -6 -159 -8 -12 -19 -22 -25 -22 -5 0 -9 44 -9 100 0
81 3 100 15 100 8 0 19 -9 25 -19z m1 -252 c16 -30 8 -167 -11 -179 -25 -16
-30 0 -30 101 0 80 3 99 15 99 8 0 19 -10 26 -21z"/>
<path d="M2980 1378 c0 -6 6 -19 14 -27 8 -9 26 -74 40 -145 31 -152 36 -315
11 -336 -28 -23 -15 -30 55 -30 39 0 70 4 70 8 0 5 -9 17 -20 27 -17 16 -20
31 -20 109 1 106 48 346 74 374 9 10 16 22 16 25 0 4 -54 7 -120 7 -85 0 -120
-3 -120 -12z m136 -88 c-13 -57 -16 -55 -31 18 -8 40 11 71 31 50 10 -10 10
-24 0 -68z"/>
</g>
</svg>
